<?xml version="1.0" encoding="UTF-8"?>
<!DOCTYPE svg PUBLIC "-//W3C//DTD SVG 1.1//EN" "http://www.w3.org/Graphics/SVG/1.1/DTD/svg11.dtd">
<svg xmlns="http://www.w3.org/2000/svg" version="1.1" width="500px" height="500px" style="shape-rendering:geometricPrecision; text-rendering:geometricPrecision; image-rendering:optimizeQuality; fill-rule:evenodd; clip-rule:evenodd" xmlns:xlink="http://www.w3.org/1999/xlink">
<g><path style="opacity:1" fill="#fcfcfc" d="M -0.5,-0.5 C 166.167,-0.5 332.833,-0.5 499.5,-0.5C 499.5,166.167 499.5,332.833 499.5,499.5C 332.833,499.5 166.167,499.5 -0.5,499.5C -0.5,332.833 -0.5,166.167 -0.5,-0.5 Z"/></g>
<g><path style="opacity:1" fill="#afcbd8" d="M 255.5,108.5 C 258.713,108.19 261.713,108.523 264.5,109.5C 264.802,112.059 264.468,114.393 263.5,116.5C 263.5,114.167 263.5,111.833 263.5,109.5C 260.615,109.806 257.948,109.473 255.5,108.5 Z"/></g>
<g><path style="opacity:1" fill="#f6f8f8" d="M 267.5,105.5 C 267.5,137.167 267.5,168.833 267.5,200.5C 268.552,200.649 269.552,200.483 270.5,200C 277.428,193.899 284.761,188.399 292.5,183.5C 294.315,182.37 296.315,181.704 298.5,181.5C 289.112,189.878 279.112,197.544 268.5,204.5C 263.727,199.805 259.061,194.972 254.5,190C 253.5,189.333 252.5,189.333 251.5,190C 236.167,201 220.833,212 205.5,223C 204.549,223.718 204.383,224.551 205,225.5C 210.564,231.578 217.064,236.245 224.5,239.5C 225.209,240.404 226.209,240.737 227.5,240.5C 227.5,233.833 227.5,227.167 227.5,220.5C 229.429,218.852 231.429,217.185 233.5,215.5C 234.167,224.833 234.833,234.167 235.5,243.5C 243.385,245.826 251.385,246.159 259.5,244.5C 259.168,234.145 259.501,223.812 260.5,213.5C 261.86,214.18 263.193,214.847 264.5,215.5C 266.377,224.306 267.044,233.306 266.5,242.5C 267.791,242.737 268.791,242.404 269.5,241.5C 277.58,238.102 284.914,233.435 291.5,227.5C 292.332,218.184 292.832,208.851 293,199.5C 301.402,191.929 310.235,184.929 319.5,178.5C 321.592,180.605 323.925,182.272 326.5,183.5C 326.631,184.239 326.464,184.906 326,185.5C 324.855,184.316 323.688,184.316 322.5,185.5C 321.206,184.71 320.039,183.71 319,182.5C 316.372,184.126 314.039,186.126 312,188.5C 308.373,220.123 291.206,239.956 260.5,248C 229.825,252.328 206.825,241.161 191.5,214.5C 181.858,192.012 183.858,170.679 197.5,150.5C 214.876,130.15 236.876,122.483 263.5,127.5C 263.5,125.5 263.5,123.5 263.5,121.5C 251.969,120.784 240.635,121.784 229.5,124.5C 230.058,123.21 231.058,122.377 232.5,122C 242.355,118.857 252.355,118.024 262.5,119.5C 263.478,119.023 264.311,118.357 265,117.5C 265.497,115.19 265.663,112.857 265.5,110.5C 266.167,108.833 266.833,107.167 267.5,105.5 Z"/></g>
<g><path style="opacity:1" fill="#deedf2" d="M 264.5,109.5 C 265.167,109.5 265.5,109.833 265.5,110.5C 265.663,112.857 265.497,115.19 265,117.5C 264.311,118.357 263.478,119.023 262.5,119.5C 252.355,118.024 242.355,118.857 232.5,122C 231.058,122.377 230.058,123.21 229.5,124.5C 215.943,129.382 204.943,137.716 196.5,149.5C 195.833,149.833 195.167,150.167 194.5,150.5C 204.796,133.334 219.796,122.501 239.5,118C 247.447,116.725 255.447,116.225 263.5,116.5C 264.468,114.393 264.802,112.059 264.5,109.5 Z"/></g>
<g><path style="opacity:1" fill="#868586" d="M 197.5,150.5 C 196.833,150.5 196.5,150.167 196.5,149.5C 204.943,137.716 215.943,129.382 229.5,124.5C 240.635,121.784 251.969,120.784 263.5,121.5C 263.5,123.5 263.5,125.5 263.5,127.5C 236.876,122.483 214.876,130.15 197.5,150.5 Z"/></g>
<g><path style="opacity:1" fill="#757575" d="M 267.5,105.5 C 275.833,105.5 284.167,105.5 292.5,105.5C 292.5,131.5 292.5,157.5 292.5,183.5C 284.761,188.399 277.428,193.899 270.5,200C 269.552,200.483 268.552,200.649 267.5,200.5C 267.5,168.833 267.5,137.167 267.5,105.5 Z"/></g>
<g><path style="opacity:1" fill="#094779" d="M 255.5,108.5 C 257.948,109.473 260.615,109.806 263.5,109.5C 263.5,111.833 263.5,114.167 263.5,116.5C 255.447,116.225 247.447,116.725 239.5,118C 219.796,122.501 204.796,133.334 194.5,150.5C 192.252,153.328 190.252,156.328 188.5,159.5C 186.36,161.7 184.86,164.367 184,167.5C 183.005,172.453 182.338,177.453 182,182.5C 181.667,182.833 181.333,183.167 181,183.5C 180.532,179.597 179.366,175.93 177.5,172.5C 176.614,173.325 176.281,174.325 176.5,175.5C 175.5,175.5 174.5,175.5 173.5,175.5C 173.529,172.247 172.363,169.581 170,167.5C 169.148,171.059 167.981,174.393 166.5,177.5C 171.699,145.614 189.365,123.781 219.5,112C 231.318,109.042 243.318,107.875 255.5,108.5 Z"/></g>
<g><path style="opacity:1" fill="#7b7b7b" d="M 259.5,151.5 C 258.087,161.843 256.92,161.843 256,151.5C 255.503,154.146 255.336,156.813 255.5,159.5C 250.167,159.5 244.833,159.5 239.5,159.5C 239.318,154.206 238.818,154.206 238,159.5C 237.333,152.833 236.667,152.833 236,159.5C 235.802,157.618 235.302,155.952 234.5,154.5C 234.5,148.167 234.5,141.833 234.5,135.5C 242.833,135.5 251.167,135.5 259.5,135.5C 259.5,140.833 259.5,146.167 259.5,151.5 Z"/></g>
<g><path style="opacity:1" fill="#898989" d="M 295.5,125.5 C 307.005,134.493 315.172,145.827 320,159.5C 314.539,147.876 306.706,138.21 296.5,130.5C 295.548,128.955 295.215,127.288 295.5,125.5 Z"/></g>
<g><path style="opacity:1" fill="#767676" d="M 295.5,135.5 C 303.525,141.027 310.025,148.027 315,156.5C 315.684,157.784 315.517,158.951 314.5,160C 311.118,160.824 307.784,160.657 304.5,159.5C 302.249,155.084 299.416,151.084 296,147.5C 295.501,143.514 295.334,139.514 295.5,135.5 Z"/></g>
<g><path style="opacity:1" fill="#7d7d7d" d="M 226.5,191.5 C 225.683,189.031 225.183,186.365 225,183.5C 224.193,187.449 223.693,187.449 223.5,183.5C 217.697,184.087 212.197,183.42 207,181.5C 206.667,183.167 206.333,184.833 206,186.5C 205.641,183.456 204.974,183.122 204,185.5C 203.667,184.833 203.333,184.167 203,183.5C 202.833,189.5 202.667,195.5 202.5,201.5C 202.504,207.872 203.171,213.872 204.5,219.5C 204.189,220.478 203.522,221.145 202.5,221.5C 201.5,202.178 201.167,182.845 201.5,163.5C 209.833,163.5 218.167,163.5 226.5,163.5C 226.5,172.833 226.5,182.167 226.5,191.5 Z"/></g>
<g><path style="opacity:1" fill="#717171" d="M 259.5,151.5 C 259.667,164.171 259.5,176.838 259,189.5C 257.316,187.649 255.483,185.982 253.5,184.5C 247.5,188.833 241.5,193.167 235.5,197.5C 234.501,183.182 234.167,168.849 234.5,154.5C 235.302,155.952 235.802,157.618 236,159.5C 236.667,152.833 237.333,152.833 238,159.5C 238.818,154.206 239.318,154.206 239.5,159.5C 244.833,159.5 250.167,159.5 255.5,159.5C 255.336,156.813 255.503,154.146 256,151.5C 256.92,161.843 258.087,161.843 259.5,151.5 Z"/></g>
<g><path style="opacity:1" fill="#727272" d="M 226.5,191.5 C 226.826,195.884 226.492,200.217 225.5,204.5C 218.647,209.755 211.647,214.755 204.5,219.5C 203.171,213.872 202.504,207.872 202.5,201.5C 202.667,195.5 202.833,189.5 203,183.5C 203.333,184.167 203.667,184.833 204,185.5C 204.974,183.122 205.641,183.456 206,186.5C 206.333,184.833 206.667,183.167 207,181.5C 212.197,183.42 217.697,184.087 223.5,183.5C 223.693,187.449 224.193,187.449 225,183.5C 225.183,186.365 225.683,189.031 226.5,191.5 Z"/></g>
<g><path style="opacity:1" fill="#044272" d="M 188.5,159.5 C 183.349,173.465 182.182,187.799 185,202.5C 186.171,207.857 188.004,212.857 190.5,217.5C 192.579,221.993 194.912,226.326 197.5,230.5C 200.438,234.899 202.605,239.565 204,244.5C 203,243.167 202,243.167 201,244.5C 200.691,243.234 200.191,242.067 199.5,241C 200.34,239.334 199.84,239.167 198,240.5C 197,239.167 196,237.833 195,236.5C 193.257,238.697 191.757,241.03 190.5,243.5C 189.614,242.675 189.281,241.675 189.5,240.5C 188.5,240.5 187.5,240.5 186.5,240.5C 186.649,239.448 186.483,238.448 186,237.5C 182.387,232.579 178.554,227.912 174.5,223.5C 167.127,209.207 164.46,193.873 166.5,177.5C 167.981,174.393 169.148,171.059 170,167.5C 172.363,169.581 173.529,172.247 173.5,175.5C 174.5,175.5 175.5,175.5 176.5,175.5C 176.281,174.325 176.614,173.325 177.5,172.5C 179.366,175.93 180.532,179.597 181,183.5C 181.333,183.167 181.667,182.833 182,182.5C 182.338,177.453 183.005,172.453 184,167.5C 184.86,164.367 186.36,161.7 188.5,159.5 Z"/></g>
<g><path style="opacity:1" fill="#798995" d="M 196.5,149.5 C 196.5,150.167 196.833,150.5 197.5,150.5C 183.858,170.679 181.858,192.012 191.5,214.5C 190.662,214.842 190.328,215.508 190.5,216.5C 190.5,216.833 190.5,217.167 190.5,217.5C 188.004,212.857 186.171,207.857 185,202.5C 182.182,187.799 183.349,173.465 188.5,159.5C 190.252,156.328 192.252,153.328 194.5,150.5C 195.167,150.167 195.833,149.833 196.5,149.5 Z"/></g>
<g><path style="opacity:1" fill="#084473" d="M 326.5,183.5 C 323.925,182.272 321.592,180.605 319.5,178.5C 310.235,184.929 301.402,191.929 293,199.5C 292.832,208.851 292.332,218.184 291.5,227.5C 284.914,233.435 277.58,238.102 269.5,241.5C 267.851,233.54 266.851,225.207 266.5,216.5C 265.817,216.137 265.15,215.804 264.5,215.5C 263.193,214.847 261.86,214.18 260.5,213.5C 259.501,223.812 259.168,234.145 259.5,244.5C 251.385,246.159 243.385,245.826 235.5,243.5C 234.833,234.167 234.167,224.833 233.5,215.5C 231.429,217.185 229.429,218.852 227.5,220.5C 227.149,227.065 226.149,233.399 224.5,239.5C 217.064,236.245 210.564,231.578 205,225.5C 204.383,224.551 204.549,223.718 205.5,223C 220.833,212 236.167,201 251.5,190C 252.5,189.333 253.5,189.333 254.5,190C 259.061,194.972 263.727,199.805 268.5,204.5C 279.112,197.544 289.112,189.878 298.5,181.5C 302.372,179.807 305.872,177.474 309,174.5C 309.14,170.766 308.64,167.099 307.5,163.5C 315.844,162.935 324.177,162.268 332.5,161.5C 330.625,168.881 328.625,176.215 326.5,183.5 Z"/></g>
<g><path style="opacity:1" fill="#717171" d="M 322.5,185.5 C 322.5,188.5 322.5,191.5 322.5,194.5C 313.782,231.866 290.116,251.532 251.5,253.5C 224.305,252.086 203.972,239.752 190.5,216.5C 190.328,215.508 190.662,214.842 191.5,214.5C 206.825,241.161 229.825,252.328 260.5,248C 291.206,239.956 308.373,220.123 312,188.5C 314.039,186.126 316.372,184.126 319,182.5C 320.039,183.71 321.206,184.71 322.5,185.5 Z"/></g>
<g><path style="opacity:1" fill="#91abbd" d="M 264.5,215.5 C 265.15,215.804 265.817,216.137 266.5,216.5C 266.851,225.207 267.851,233.54 269.5,241.5C 268.791,242.404 267.791,242.737 266.5,242.5C 267.044,233.306 266.377,224.306 264.5,215.5 Z"/></g>
<g><path style="opacity:1" fill="#1f466b" d="M 322.5,209.5 C 320.632,217.244 317.632,224.577 313.5,231.5C 309.304,236.688 304.971,241.855 300.5,247C 296.451,250.352 292.118,253.185 287.5,255.5C 288.087,254.233 288.087,253.233 287.5,252.5C 283.986,254.117 280.319,255.117 276.5,255.5C 298.857,247.143 314.191,231.809 322.5,209.5 Z"/></g>
<g><path style="opacity:1" fill="#edf2f4" d="M 313.5,231.5 C 317.632,224.577 320.632,217.244 322.5,209.5C 314.191,231.809 298.857,247.143 276.5,255.5C 244.702,263.787 218.369,255.454 197.5,230.5C 194.912,226.326 192.579,221.993 190.5,217.5C 190.5,217.167 190.5,216.833 190.5,216.5C 203.972,239.752 224.305,252.086 251.5,253.5C 290.116,251.532 313.782,231.866 322.5,194.5C 322.369,195.239 322.536,195.906 323,196.5C 323.249,193.823 324.249,191.49 326,189.5C 327.944,194.86 327.778,200.194 325.5,205.5C 324.271,212.995 321.771,220.328 318,227.5C 316.951,229.384 315.451,230.718 313.5,231.5 Z"/></g>
<g><path style="opacity:1" fill="#a4bdcc" d="M 227.5,220.5 C 227.5,227.167 227.5,233.833 227.5,240.5C 226.209,240.737 225.209,240.404 224.5,239.5C 226.149,233.399 227.149,227.065 227.5,220.5 Z"/></g>
<g><path style="opacity:1" fill="#808c91" d="M 322.5,209.5 C 323.138,204.81 323.971,200.144 325,195.5C 325.499,200.498 324.665,205.164 322.5,209.5 Z"/></g>
<g><path style="opacity:1" fill="#0b406b" d="M 174.5,223.5 C 178.554,227.912 182.387,232.579 186,237.5C 186.483,238.448 186.649,239.448 186.5,240.5C 187.5,240.5 188.5,240.5 189.5,240.5C 189.281,241.675 189.614,242.675 190.5,243.5C 191.757,241.03 193.257,238.697 195,236.5C 196,237.833 197,239.167 198,240.5C 199.84,239.167 200.34,239.334 199.5,241C 200.191,242.067 200.691,243.234 201,244.5C 202,243.167 203,243.167 204,244.5C 202.605,239.565 200.438,234.899 197.5,230.5C 218.369,255.454 244.702,263.787 276.5,255.5C 280.319,255.117 283.986,254.117 287.5,252.5C 288.087,253.233 288.087,254.233 287.5,255.5C 278.591,261.772 268.591,265.606 257.5,267C 219.637,271.407 191.97,256.907 174.5,223.5 Z"/></g>
<g><path style="opacity:1" fill="#575757" d="M 288.5,283.5 C 292.182,283.335 295.848,283.501 299.5,284C 301.347,287.124 303.013,287.124 304.5,284C 307.817,283.502 311.15,283.335 314.5,283.5C 314.5,289.5 314.5,295.5 314.5,301.5C 310.833,301.5 307.167,301.5 303.5,301.5C 302.439,294.471 298.772,292.471 292.5,295.5C 291.416,296.665 290.583,297.998 290,299.5C 289.333,303.5 289.333,307.5 290,311.5C 291.567,315.078 294.233,317.078 298,317.5C 302.255,316.606 306.088,315.106 309.5,313C 315.528,316.349 315.861,320.015 310.5,324C 298.382,331.174 287.549,329.674 278,319.5C 271.111,304.344 274.611,292.344 288.5,283.5 Z"/></g>
<g><path style="opacity:1" fill="#565656" d="M 213.5,284.5 C 216.5,284.5 219.5,284.5 222.5,284.5C 222.5,290.167 222.5,295.833 222.5,301.5C 218.833,301.5 215.167,301.5 211.5,301.5C 212.275,297.818 210.941,295.318 207.5,294C 204.975,293.104 202.808,293.604 201,295.5C 197.28,303.023 197.78,310.19 202.5,317C 205.167,317.667 207.833,317.667 210.5,317C 212.747,315.626 214.913,314.126 217,312.5C 219.608,314.35 221.775,316.684 223.5,319.5C 214.599,329.06 204.266,330.894 192.5,325C 182.806,315.564 180.973,304.731 187,292.5C 191.98,285.091 198.814,282.257 207.5,284C 209.286,284.785 210.786,285.951 212,287.5C 212.232,286.263 212.732,285.263 213.5,284.5 Z"/></g>
<g><path style="opacity:1" fill="#929292" d="M 258.5,284.5 C 261.625,283.521 264.958,283.187 268.5,283.5C 268.5,289.833 268.5,296.167 268.5,302.5C 264.5,302.5 260.5,302.5 256.5,302.5C 256.5,301.167 256.5,299.833 256.5,298.5C 257.404,299.209 257.737,300.209 257.5,301.5C 260.833,301.5 264.167,301.5 267.5,301.5C 267.5,295.833 267.5,290.167 267.5,284.5C 264.5,284.5 261.5,284.5 258.5,284.5 Z"/></g>
<g><path style="opacity:1" fill="#8b8b8b" d="M 213.5,284.5 C 216.625,283.521 219.958,283.187 223.5,283.5C 223.823,289.69 223.49,295.69 222.5,301.5C 222.5,295.833 222.5,290.167 222.5,284.5C 219.5,284.5 216.5,284.5 213.5,284.5 Z"/></g>
<g><path style="opacity:1" fill="#565656" d="M 258.5,284.5 C 261.5,284.5 264.5,284.5 267.5,284.5C 267.5,290.167 267.5,295.833 267.5,301.5C 264.167,301.5 260.833,301.5 257.5,301.5C 257.737,300.209 257.404,299.209 256.5,298.5C 252.172,293.178 247.672,293.178 243,298.5C 241.466,302.711 241.133,307.044 242,311.5C 244.525,317.453 248.691,318.953 254.5,316C 255.38,314.644 255.714,313.144 255.5,311.5C 254.5,311.5 253.5,311.5 252.5,311.5C 252.5,309.5 252.5,307.5 252.5,305.5C 259.167,305.5 265.833,305.5 272.5,305.5C 271.013,312.737 270.346,320.07 270.5,327.5C 266.116,327.826 261.783,327.492 257.5,326.5C 257,325.5 256.5,324.5 256,323.5C 241.433,331.421 231.767,327.421 227,311.5C 224.289,299.095 228.456,289.928 239.5,284C 246.386,282.694 252.72,283.86 258.5,287.5C 258.5,286.5 258.5,285.5 258.5,284.5 Z"/></g>
<g><path style="opacity:1" fill="#595959" d="M 111.5,356.5 C 116.93,356.161 122.264,356.661 127.5,358C 131.005,361.19 131.338,364.69 128.5,368.5C 132.952,374.068 131.952,378.568 125.5,382C 120.845,382.499 116.179,382.666 111.5,382.5C 111.5,373.833 111.5,365.167 111.5,356.5 Z"/></g>
<g><path style="opacity:1" fill="#565656" d="M 163.5,371.5 C 163.783,372.289 164.283,372.956 165,373.5C 165.499,367.843 165.666,362.176 165.5,356.5C 167.167,356.5 168.833,356.5 170.5,356.5C 170.5,365.167 170.5,373.833 170.5,382.5C 168.801,382.66 167.134,382.494 165.5,382C 161.46,377.406 157.794,372.573 154.5,367.5C 154.44,366.957 154.107,366.624 153.5,366.5C 152.505,371.792 152.172,377.125 152.5,382.5C 150.833,382.5 149.167,382.5 147.5,382.5C 147.5,373.833 147.5,365.167 147.5,356.5C 149.604,356.201 151.604,356.534 153.5,357.5C 157.246,361.906 160.58,366.573 163.5,371.5 Z"/></g>
<g><path style="opacity:1" fill="#575757" d="M 174.5,356.5 C 179.833,356.5 185.167,356.5 190.5,356.5C 190.5,358.167 190.5,359.833 190.5,361.5C 186.833,361.5 183.167,361.5 179.5,361.5C 179.5,363.167 179.5,364.833 179.5,366.5C 182.833,366.5 186.167,366.5 189.5,366.5C 189.5,368.167 189.5,369.833 189.5,371.5C 186.5,371.5 183.5,371.5 180.5,371.5C 180.5,373.5 180.5,375.5 180.5,377.5C 183.833,377.5 187.167,377.5 190.5,377.5C 190.5,379.167 190.5,380.833 190.5,382.5C 185.167,382.5 179.833,382.5 174.5,382.5C 174.5,373.833 174.5,365.167 174.5,356.5 Z"/></g>
<g><path style="opacity:1" fill="#565656" d="M 251.5,356.5 C 256.833,356.5 262.167,356.5 267.5,356.5C 267.5,358.167 267.5,359.833 267.5,361.5C 263.833,361.5 260.167,361.5 256.5,361.5C 256.5,363.167 256.5,364.833 256.5,366.5C 259.5,366.5 262.5,366.5 265.5,366.5C 265.5,368.167 265.5,369.833 265.5,371.5C 262.5,371.5 259.5,371.5 256.5,371.5C 256.5,373.5 256.5,375.5 256.5,377.5C 260.167,377.5 263.833,377.5 267.5,377.5C 267.5,379.167 267.5,380.833 267.5,382.5C 262.167,382.5 256.833,382.5 251.5,382.5C 251.5,373.833 251.5,365.167 251.5,356.5 Z"/></g>
<g><path style="opacity:1" fill="#585858" d="M 297.5,356.5 C 302.833,356.5 308.167,356.5 313.5,356.5C 313.5,358.167 313.5,359.833 313.5,361.5C 310.167,361.5 306.833,361.5 303.5,361.5C 303.5,363.167 303.5,364.833 303.5,366.5C 306.5,366.5 309.5,366.5 312.5,366.5C 312.5,368.167 312.5,369.833 312.5,371.5C 309.5,371.5 306.5,371.5 303.5,371.5C 303.5,373.5 303.5,375.5 303.5,377.5C 306.833,377.5 310.167,377.5 313.5,377.5C 313.5,379.167 313.5,380.833 313.5,382.5C 308.167,382.5 302.833,382.5 297.5,382.5C 297.5,373.833 297.5,365.167 297.5,356.5 Z"/></g>
<g><path style="opacity:1" fill="#595959" d="M 352.5,356.5 C 354.833,356.5 357.167,356.5 359.5,356.5C 362.51,365.182 365.51,373.849 368.5,382.5C 364.612,383.011 362.279,381.345 361.5,377.5C 357.555,376.509 353.555,376.176 349.5,376.5C 349.167,378.5 348.833,380.5 348.5,382.5C 346.5,382.5 344.5,382.5 342.5,382.5C 345.268,373.628 348.602,364.961 352.5,356.5 Z"/></g>
<g><path style="opacity:1" fill="#c2c2c2" d="M 165.5,356.5 C 165.666,362.176 165.499,367.843 165,373.5C 164.283,372.956 163.783,372.289 163.5,371.5C 164.167,366.5 164.833,361.5 165.5,356.5 Z"/></g>
<g><path style="opacity:1" fill="#eeeeee" d="M 117.5,361.5 C 119.857,361.337 122.19,361.503 124.5,362C 125.833,363.333 125.833,364.667 124.5,366C 122.19,366.497 119.857,366.663 117.5,366.5C 117.5,364.833 117.5,363.167 117.5,361.5 Z"/></g>
<g><path style="opacity:1" fill="#5b5b5b" d="M 193.5,356.5 C 199.833,356.5 206.167,356.5 212.5,356.5C 212.5,358.167 212.5,359.833 212.5,361.5C 210.167,361.5 207.833,361.5 205.5,361.5C 205.5,368.5 205.5,375.5 205.5,382.5C 203.5,382.5 201.5,382.5 199.5,382.5C 199.5,375.5 199.5,368.5 199.5,361.5C 197.5,361.5 195.5,361.5 193.5,361.5C 193.5,359.833 193.5,358.167 193.5,356.5 Z"/></g>
<g><path style="opacity:1" fill="#565656" d="M 142.5,361.5 C 141.836,364.146 141.502,366.979 141.5,370C 141.823,374.264 142.49,378.43 143.5,382.5C 140.5,382.5 137.5,382.5 134.5,382.5C 135.409,378.237 136.076,373.903 136.5,369.5C 136.076,365.097 135.409,360.763 134.5,356.5C 137.5,356.5 140.5,356.5 143.5,356.5C 143.784,358.415 143.451,360.081 142.5,361.5 Z"/></g>
<g><path style="opacity:1" fill="#575757" d="M 401.5,356.5 C 417.315,353.487 424.148,359.82 422,375.5C 420.859,377.609 419.359,379.442 417.5,381C 412.292,382.397 406.959,382.897 401.5,382.5C 401.5,373.833 401.5,365.167 401.5,356.5 Z"/></g>
<g><path style="opacity:1" fill="#f6f6f6" d="M 406.5,361.5 C 417.17,361.319 420.17,366.153 415.5,376C 412.649,377.289 409.649,377.789 406.5,377.5C 406.5,372.167 406.5,366.833 406.5,361.5 Z"/></g>
<g><path style="opacity:1" fill="#565656" d="M 326.5,373.5 C 325.817,371.824 324.483,371.157 322.5,371.5C 322.5,375.167 322.5,378.833 322.5,382.5C 320.833,382.5 319.167,382.5 317.5,382.5C 317.5,373.833 317.5,365.167 317.5,356.5C 321.846,356.334 326.179,356.501 330.5,357C 337.984,361.41 338.317,366.244 331.5,371.5C 334.288,374.91 336.955,378.41 339.5,382C 337.5,382.667 335.5,382.667 333.5,382C 331.302,378.977 328.969,376.144 326.5,373.5 Z"/></g>
<g><path style="opacity:1" fill="#a0a0a0" d="M 323.5,361.5 C 323.5,363.167 323.5,364.833 323.5,366.5C 325.5,366.5 327.5,366.5 329.5,366.5C 327.393,367.468 325.059,367.802 322.5,367.5C 322.205,365.265 322.539,363.265 323.5,361.5 Z"/></g>
<g><path style="opacity:1" fill="#f1f1f1" d="M 323.5,361.5 C 325.527,361.338 327.527,361.505 329.5,362C 330.801,363.616 330.801,365.116 329.5,366.5C 327.5,366.5 325.5,366.5 323.5,366.5C 323.5,364.833 323.5,363.167 323.5,361.5 Z"/></g>
<g><path style="opacity:1" fill="#f0f0f0" d="M 358.5,371.5 C 356.219,371.923 354.552,371.256 353.5,369.5C 353.771,367.688 354.438,366.022 355.5,364.5C 356.783,366.73 357.783,369.063 358.5,371.5 Z"/></g>
<g><path style="opacity:1" fill="#aeaeae" d="M 142.5,361.5 C 142.059,367.805 142.726,373.971 144.5,380C 144.472,381.07 144.139,381.903 143.5,382.5C 142.49,378.43 141.823,374.264 141.5,370C 141.502,366.979 141.836,364.146 142.5,361.5 Z"/></g>
<g><path style="opacity:1" fill="#b4b4b4" d="M 247.5,377.5 C 247.5,374.5 247.5,371.5 247.5,368.5C 244.5,368.5 241.5,368.5 238.5,368.5C 238.5,369.833 238.5,371.167 238.5,372.5C 237.549,371.081 237.216,369.415 237.5,367.5C 241.167,367.5 244.833,367.5 248.5,367.5C 248.813,371.042 248.479,374.375 247.5,377.5 Z"/></g>
<g><path style="opacity:1" fill="#5a5a5a" d="M 91.5,356.5 C 94.1194,356.232 96.6194,356.565 99,357.5C 102.285,365.863 105.451,374.197 108.5,382.5C 106.5,382.5 104.5,382.5 102.5,382.5C 102.55,377.387 100.05,375.387 95,376.5C 90.5691,375.436 88.0691,377.103 87.5,381.5C 85.5,382.833 83.5,382.833 81.5,381.5C 85.2345,373.29 88.5678,364.957 91.5,356.5 Z"/></g>
<g><path style="opacity:1" fill="#eaeaea" d="M 94.5,364.5 C 96.8337,366.176 97.8337,368.509 97.5,371.5C 95.8333,371.5 94.1667,371.5 92.5,371.5C 92.767,369.035 93.4336,366.701 94.5,364.5 Z"/></g>
<g><path style="opacity:1" fill="#f8f8f8" d="M 117.5,371.5 C 120.167,371.5 122.833,371.5 125.5,371.5C 125.739,373.467 125.406,375.301 124.5,377C 122.19,377.497 119.857,377.663 117.5,377.5C 117.5,375.5 117.5,373.5 117.5,371.5 Z"/></g>
<g><path style="opacity:1" fill="#a1a1a1" d="M 353.5,369.5 C 354.552,371.256 356.219,371.923 358.5,371.5C 356.735,372.461 354.735,372.795 352.5,372.5C 352.263,371.209 352.596,370.209 353.5,369.5 Z"/></g>
<g><path style="opacity:1" fill="#a3a3a3" d="M 326.5,373.5 C 325.85,373.196 325.183,372.863 324.5,372.5C 323.833,375.977 323.166,379.311 322.5,382.5C 322.5,378.833 322.5,375.167 322.5,371.5C 324.483,371.157 325.817,371.824 326.5,373.5 Z"/></g>
<g><path style="opacity:1" fill="#595959" d="M 270.5,356.5 C 272.604,356.201 274.604,356.534 276.5,357.5C 280.333,362.5 284.167,367.5 288,372.5C 288.499,367.177 288.666,361.844 288.5,356.5C 290.167,356.5 291.833,356.5 293.5,356.5C 293.5,365.167 293.5,373.833 293.5,382.5C 291.801,382.66 290.134,382.494 288.5,382C 284.789,376.744 280.955,371.578 277,366.5C 276.501,371.823 276.334,377.156 276.5,382.5C 274.5,382.5 272.5,382.5 270.5,382.5C 270.5,373.833 270.5,365.167 270.5,356.5 Z"/></g>
<g><path style="opacity:1" fill="#595959" d="M 63.5,356.5 C 66.8499,356.335 70.1832,356.502 73.5,357C 78.1556,358.751 78.4889,360.918 74.5,363.5C 67.3021,359.415 62.9687,361.415 61.5,369.5C 63.7119,377.88 68.3786,379.546 75.5,374.5C 77.7236,375.081 78.557,376.414 78,378.5C 73.0329,382.682 67.5329,383.516 61.5,381C 54.2918,372.062 54.9585,363.895 63.5,356.5 Z"/></g>
<g><path style="opacity:1" fill="#ababab" d="M 154.5,367.5 C 153.833,372.5 153.167,377.5 152.5,382.5C 152.172,377.125 152.505,371.792 153.5,366.5C 154.107,366.624 154.44,366.957 154.5,367.5 Z"/></g>
<g><path style="opacity:1" fill="#595959" d="M 238.5,372.5 C 238.5,371.167 238.5,369.833 238.5,368.5C 241.5,368.5 244.5,368.5 247.5,368.5C 247.5,371.5 247.5,374.5 247.5,377.5C 242.763,382.609 237.096,383.776 230.5,381C 223.056,373.923 222.723,366.59 229.5,359C 234.794,355.552 239.96,355.718 245,359.5C 245.436,361.296 244.769,362.629 243,363.5C 233.691,359.485 229.691,362.485 231,372.5C 233.196,377.54 236.696,378.707 241.5,376C 242.337,374.989 242.67,373.822 242.5,372.5C 241.167,372.5 239.833,372.5 238.5,372.5 Z"/></g>
<g><path style="opacity:1" fill="#555555" d="M 372.5,356.5 C 374.167,356.5 375.833,356.5 377.5,356.5C 377.5,363.5 377.5,370.5 377.5,377.5C 381.167,377.5 384.833,377.5 388.5,377.5C 388.5,379.167 388.5,380.833 388.5,382.5C 383.167,382.5 377.833,382.5 372.5,382.5C 372.5,373.833 372.5,365.167 372.5,356.5 Z"/></g>
<g><path style="opacity:1" fill="#575757" d="M 426.5,356.5 C 431.833,356.5 437.167,356.5 442.5,356.5C 442.5,358.167 442.5,359.833 442.5,361.5C 438.833,361.5 435.167,361.5 431.5,361.5C 431.5,363.167 431.5,364.833 431.5,366.5C 434.5,366.5 437.5,366.5 440.5,366.5C 440.5,368.167 440.5,369.833 440.5,371.5C 437.5,371.5 434.5,371.5 431.5,371.5C 431.5,373.5 431.5,375.5 431.5,377.5C 435.167,377.5 438.833,377.5 442.5,377.5C 442.5,379.167 442.5,380.833 442.5,382.5C 437.167,382.5 431.833,382.5 426.5,382.5C 426.5,373.833 426.5,365.167 426.5,356.5 Z"/></g>
<g><path style="opacity:1" fill="#565656" d="M 330.5,422.5 C 330.56,423.043 330.893,423.376 331.5,423.5C 332.495,418.208 332.828,412.875 332.5,407.5C 334.167,407.5 335.833,407.5 337.5,407.5C 337.5,416.167 337.5,424.833 337.5,433.5C 335.396,433.799 333.396,433.466 331.5,432.5C 328.145,427.766 324.812,423.1 321.5,418.5C 321.44,417.957 321.107,417.624 320.5,417.5C 319.505,422.792 319.172,428.125 319.5,433.5C 317.833,433.5 316.167,433.5 314.5,433.5C 314.5,424.833 314.5,416.167 314.5,407.5C 316.604,407.201 318.604,407.534 320.5,408.5C 324.246,412.906 327.58,417.573 330.5,422.5 Z"/></g>
<g><path style="opacity:1" fill="#555555" d="M 205.5,423.5 C 205.56,424.043 205.893,424.376 206.5,424.5C 207.495,418.872 207.829,413.206 207.5,407.5C 209.167,407.5 210.833,407.5 212.5,407.5C 212.5,416.167 212.5,424.833 212.5,433.5C 210.801,433.66 209.134,433.494 207.5,433C 203.212,427.59 199.045,422.09 195,416.5C 194.501,422.157 194.334,427.824 194.5,433.5C 192.833,433.5 191.167,433.5 189.5,433.5C 189.5,424.833 189.5,416.167 189.5,407.5C 191.199,407.34 192.866,407.506 194.5,408C 198.411,413.064 202.078,418.231 205.5,423.5 Z"/></g>
<g><path style="opacity:1" fill="#5a5a5a" d="M 238.5,407.5 C 240.5,407.5 242.5,407.5 244.5,407.5C 244.334,413.509 244.501,419.509 245,425.5C 248.005,429.595 250.671,429.261 253,424.5C 253.499,418.843 253.666,413.176 253.5,407.5C 255.167,407.5 256.833,407.5 258.5,407.5C 258.666,414.175 258.5,420.842 258,427.5C 254.252,433.542 249.085,435.042 242.5,432C 240.959,430.421 239.792,428.587 239,426.5C 238.5,420.175 238.334,413.842 238.5,407.5 Z"/></g>
<g><path style="opacity:1" fill="#545454" d="M 262.5,407.5 C 264.167,407.5 265.833,407.5 267.5,407.5C 267.5,414.5 267.5,421.5 267.5,428.5C 271.167,428.5 274.833,428.5 278.5,428.5C 278.5,430.167 278.5,431.833 278.5,433.5C 273.167,433.5 267.833,433.5 262.5,433.5C 262.5,424.833 262.5,416.167 262.5,407.5 Z"/></g>
<g><path style="opacity:1" fill="#565656" d="M 309.5,412.5 C 308.836,415.146 308.502,417.979 308.5,421C 308.823,425.264 309.49,429.43 310.5,433.5C 307.5,433.5 304.5,433.5 301.5,433.5C 302.409,429.237 303.076,424.903 303.5,420.5C 303.076,416.097 302.409,411.763 301.5,407.5C 304.5,407.5 307.5,407.5 310.5,407.5C 310.634,409.292 310.301,410.958 309.5,412.5 Z"/></g>
<g><path style="opacity:1" fill="#585858" d="M 143.5,407.5 C 146.187,407.336 148.854,407.503 151.5,408C 155.884,409.542 156.384,411.709 153,414.5C 144.183,410.979 140.183,413.979 141,423.5C 141.785,425.286 142.951,426.786 144.5,428C 148.47,428.326 152.136,427.66 155.5,426C 158.064,428.276 157.73,430.276 154.5,432C 140.221,435.725 134.055,430.225 136,415.5C 137.353,411.65 139.853,408.983 143.5,407.5 Z"/></g>
<g><path style="opacity:1" fill="#5a5a5a" d="M 221.5,407.5 C 224.187,407.336 226.854,407.503 229.5,408C 233.859,409.503 234.359,411.67 231,414.5C 228.847,412.556 226.347,412.056 223.5,413C 222.167,414.333 222.167,415.667 223.5,417C 227.644,418.266 231.477,420.099 235,422.5C 236.041,430.063 232.708,433.729 225,433.5C 221.8,433.853 219.133,432.853 217,430.5C 216.316,429.216 216.483,428.049 217.5,427C 220.324,426.657 222.991,427.157 225.5,428.5C 229.631,428.258 230.297,426.758 227.5,424C 220.049,423.556 216.549,419.723 217,412.5C 218.025,410.313 219.525,408.646 221.5,407.5 Z"/></g>
<g><path style="opacity:1" fill="#555555" d="M 279.5,407.5 C 285.833,407.5 292.167,407.5 298.5,407.5C 298.5,409.167 298.5,410.833 298.5,412.5C 296.167,412.5 293.833,412.5 291.5,412.5C 291.5,419.5 291.5,426.5 291.5,433.5C 289.833,433.5 288.167,433.5 286.5,433.5C 286.5,426.5 286.5,419.5 286.5,412.5C 284.167,412.5 281.833,412.5 279.5,412.5C 279.5,410.833 279.5,409.167 279.5,407.5 Z"/></g>
<g><path style="opacity:1" fill="#afafaf" d="M 309.5,412.5 C 309.059,418.805 309.726,424.971 311.5,431C 311.472,432.07 311.139,432.903 310.5,433.5C 309.49,429.43 308.823,425.264 308.5,421C 308.502,417.979 308.836,415.146 309.5,412.5 Z"/></g>
<g><path style="opacity:1" fill="#c4c4c4" d="M 332.5,407.5 C 332.828,412.875 332.495,418.208 331.5,423.5C 330.893,423.376 330.56,423.043 330.5,422.5C 331.167,417.5 331.833,412.5 332.5,407.5 Z"/></g>
<g><path style="opacity:1" fill="#999999" d="M 207.5,407.5 C 207.829,413.206 207.495,418.872 206.5,424.5C 205.893,424.376 205.56,424.043 205.5,423.5C 206.167,418.167 206.833,412.833 207.5,407.5 Z"/></g>
<g><path style="opacity:1" fill="#595959" d="M 354.5,423.5 C 354.5,422.167 354.5,420.833 354.5,419.5C 357.5,419.5 360.5,419.5 363.5,419.5C 363.5,422.5 363.5,425.5 363.5,428.5C 359.568,433.123 354.568,434.623 348.5,433C 338.734,425.744 338.068,417.744 346.5,409C 351.688,406.651 356.522,407.151 361,410.5C 361.309,412.391 360.475,413.725 358.5,414.5C 351.798,411.184 347.798,413.184 346.5,420.5C 347.497,427.813 351.497,430.147 358.5,427.5C 358.5,426.167 358.5,424.833 358.5,423.5C 357.167,423.5 355.833,423.5 354.5,423.5 Z"/></g>
<g><path style="opacity:1" fill="#ababab" d="M 321.5,418.5 C 320.833,423.5 320.167,428.5 319.5,433.5C 319.172,428.125 319.505,422.792 320.5,417.5C 321.107,417.624 321.44,417.957 321.5,418.5 Z"/></g>
<g><path style="opacity:1" fill="#b2b2b2" d="M 363.5,428.5 C 363.5,425.5 363.5,422.5 363.5,419.5C 360.5,419.5 357.5,419.5 354.5,419.5C 354.5,420.833 354.5,422.167 354.5,423.5C 353.549,422.081 353.216,420.415 353.5,418.5C 357.167,418.5 360.833,418.5 364.5,418.5C 364.813,422.042 364.479,425.375 363.5,428.5 Z"/></g>
<g><path style="opacity:1" fill="#575757" d="M 169.5,407.5 C 180.628,407.132 186.128,412.465 186,423.5C 181.934,433.447 175.101,435.947 165.5,431C 157.878,421.507 159.211,413.674 169.5,407.5 Z"/></g>
<g><path style="opacity:1" fill="#f6f6f6" d="M 170.5,412.5 C 178.149,412.314 181.315,415.981 180,423.5C 177.335,428.434 173.502,429.601 168.5,427C 165.305,421.532 165.972,416.699 170.5,412.5 Z"/></g>
</svg>
